<mxfile host="app.diagrams.net" modified="2023-11-12T16:41:40.041Z" agent="Mozilla/5.0 (Windows NT 10.0; Win64; x64) AppleWebKit/537.36 (KHTML, like Gecko) Chrome/119.0.0.0 Safari/537.36 Edg/119.0.0.0" etag="FZ7OAw6J89nbEQDY5vLg" version="22.1.0" type="device">
  <diagram name="Page-1" id="e7e014a7-5840-1c2e-5031-d8a46d1fe8dd">
    <mxGraphModel dx="1431" dy="824" grid="1" gridSize="10" guides="1" tooltips="1" connect="1" arrows="1" fold="1" page="1" pageScale="1" pageWidth="4681" pageHeight="3300" background="none" math="0" shadow="0">
      <root>
        <mxCell id="0" />
        <mxCell id="1" parent="0" />
        <mxCell id="nSBWtU-ysUEC7B_hiOjq-43" value="" style="edgeStyle=orthogonalEdgeStyle;rounded=0;orthogonalLoop=1;jettySize=auto;html=1;" edge="1" parent="1" source="nSBWtU-ysUEC7B_hiOjq-41">
          <mxGeometry relative="1" as="geometry">
            <mxPoint x="574.9999999999998" y="180" as="targetPoint" />
          </mxGeometry>
        </mxCell>
        <mxCell id="nSBWtU-ysUEC7B_hiOjq-41" value="Вирус &quot;Stealer-Keylogger&quot;" style="ellipse;whiteSpace=wrap;html=1;aspect=fixed;fillColor=#f8cecc;strokeColor=#b85450;fontSize=15;" vertex="1" parent="1">
          <mxGeometry x="530" width="90" height="90" as="geometry" />
        </mxCell>
        <mxCell id="nSBWtU-ysUEC7B_hiOjq-46" value="" style="edgeStyle=orthogonalEdgeStyle;rounded=0;orthogonalLoop=1;jettySize=auto;html=1;" edge="1" parent="1" source="nSBWtU-ysUEC7B_hiOjq-44" target="nSBWtU-ysUEC7B_hiOjq-45">
          <mxGeometry relative="1" as="geometry" />
        </mxCell>
        <mxCell id="nSBWtU-ysUEC7B_hiOjq-44" value="Активируется на компьютере при помощи мастер-ключа" style="rounded=1;whiteSpace=wrap;html=1;fontSize=15;" vertex="1" parent="1">
          <mxGeometry x="502.5" y="120" width="145" height="80" as="geometry" />
        </mxCell>
        <mxCell id="nSBWtU-ysUEC7B_hiOjq-86" style="edgeStyle=orthogonalEdgeStyle;rounded=0;orthogonalLoop=1;jettySize=auto;html=1;exitX=0.5;exitY=0;exitDx=0;exitDy=0;entryX=0.5;entryY=0;entryDx=0;entryDy=0;" edge="1" parent="1" source="nSBWtU-ysUEC7B_hiOjq-45" target="nSBWtU-ysUEC7B_hiOjq-85">
          <mxGeometry relative="1" as="geometry" />
        </mxCell>
        <mxCell id="nSBWtU-ysUEC7B_hiOjq-45" value="Отправляет запрос на удаленный сервер с целью проверки доступности" style="rounded=1;whiteSpace=wrap;html=1;direction=west;fontSize=15;" vertex="1" parent="1">
          <mxGeometry x="498.75" y="230" width="152.5" height="70" as="geometry" />
        </mxCell>
        <mxCell id="nSBWtU-ysUEC7B_hiOjq-56" value="Находится в замороженном состоянии пока не будут извлечены пароли или ввод с клавиатуры" style="rounded=1;whiteSpace=wrap;html=1;fontSize=15;" vertex="1" parent="1">
          <mxGeometry x="479.69" y="410" width="190.62" height="90" as="geometry" />
        </mxCell>
        <mxCell id="nSBWtU-ysUEC7B_hiOjq-60" value="" style="endArrow=none;html=1;rounded=0;strokeWidth=5;" edge="1" parent="1">
          <mxGeometry width="50" height="50" relative="1" as="geometry">
            <mxPoint x="520" y="520" as="sourcePoint" />
            <mxPoint x="640" y="520" as="targetPoint" />
            <Array as="points">
              <mxPoint x="600" y="520" />
            </Array>
          </mxGeometry>
        </mxCell>
        <mxCell id="nSBWtU-ysUEC7B_hiOjq-61" value="" style="endArrow=classic;html=1;rounded=0;exitX=0.5;exitY=1;exitDx=0;exitDy=0;" edge="1" parent="1" source="nSBWtU-ysUEC7B_hiOjq-56">
          <mxGeometry width="50" height="50" relative="1" as="geometry">
            <mxPoint x="500" y="410" as="sourcePoint" />
            <mxPoint x="576" y="520" as="targetPoint" />
          </mxGeometry>
        </mxCell>
        <mxCell id="nSBWtU-ysUEC7B_hiOjq-75" style="edgeStyle=orthogonalEdgeStyle;rounded=0;orthogonalLoop=1;jettySize=auto;html=1;exitX=0.5;exitY=1;exitDx=0;exitDy=0;entryX=0.5;entryY=0;entryDx=0;entryDy=0;" edge="1" parent="1" source="nSBWtU-ysUEC7B_hiOjq-62" target="nSBWtU-ysUEC7B_hiOjq-74">
          <mxGeometry relative="1" as="geometry" />
        </mxCell>
        <mxCell id="nSBWtU-ysUEC7B_hiOjq-62" value="Извлечены пароли сохранённые в браузерах Google chrome &amp;amp; Mozilla Firefox" style="rounded=1;whiteSpace=wrap;html=1;fontSize=15;" vertex="1" parent="1">
          <mxGeometry x="352.5" y="590" width="150" height="110" as="geometry" />
        </mxCell>
        <mxCell id="nSBWtU-ysUEC7B_hiOjq-69" style="edgeStyle=orthogonalEdgeStyle;rounded=0;orthogonalLoop=1;jettySize=auto;html=1;exitX=0.5;exitY=1;exitDx=0;exitDy=0;entryX=0.5;entryY=0;entryDx=0;entryDy=0;" edge="1" parent="1" source="nSBWtU-ysUEC7B_hiOjq-63" target="nSBWtU-ysUEC7B_hiOjq-68">
          <mxGeometry relative="1" as="geometry" />
        </mxCell>
        <mxCell id="nSBWtU-ysUEC7B_hiOjq-63" value="Зафиксирован ввод с клавиатуры" style="rounded=1;whiteSpace=wrap;html=1;fontSize=15;" vertex="1" parent="1">
          <mxGeometry x="660" y="610" width="137.5" height="70" as="geometry" />
        </mxCell>
        <mxCell id="nSBWtU-ysUEC7B_hiOjq-66" value="" style="endArrow=classic;html=1;rounded=0;entryX=0.5;entryY=0;entryDx=0;entryDy=0;" edge="1" parent="1" target="nSBWtU-ysUEC7B_hiOjq-63">
          <mxGeometry width="50" height="50" relative="1" as="geometry">
            <mxPoint x="620" y="520" as="sourcePoint" />
            <mxPoint x="550" y="620" as="targetPoint" />
          </mxGeometry>
        </mxCell>
        <mxCell id="nSBWtU-ysUEC7B_hiOjq-67" value="" style="endArrow=classic;html=1;rounded=0;entryX=0.5;entryY=0;entryDx=0;entryDy=0;" edge="1" parent="1" target="nSBWtU-ysUEC7B_hiOjq-62">
          <mxGeometry width="50" height="50" relative="1" as="geometry">
            <mxPoint x="540" y="520" as="sourcePoint" />
            <mxPoint x="550" y="620" as="targetPoint" />
          </mxGeometry>
        </mxCell>
        <mxCell id="nSBWtU-ysUEC7B_hiOjq-71" style="edgeStyle=orthogonalEdgeStyle;rounded=0;orthogonalLoop=1;jettySize=auto;html=1;exitX=0.5;exitY=1;exitDx=0;exitDy=0;entryX=0.5;entryY=0;entryDx=0;entryDy=0;" edge="1" parent="1" source="nSBWtU-ysUEC7B_hiOjq-68" target="nSBWtU-ysUEC7B_hiOjq-70">
          <mxGeometry relative="1" as="geometry" />
        </mxCell>
        <mxCell id="nSBWtU-ysUEC7B_hiOjq-68" value="Начат перехват вводимых символов на клавиатуре и сохранение их в буфер" style="rounded=1;whiteSpace=wrap;html=1;fontSize=15;" vertex="1" parent="1">
          <mxGeometry x="643.13" y="720" width="171.25" height="90" as="geometry" />
        </mxCell>
        <mxCell id="nSBWtU-ysUEC7B_hiOjq-73" style="edgeStyle=orthogonalEdgeStyle;rounded=0;orthogonalLoop=1;jettySize=auto;html=1;exitX=0.5;exitY=1;exitDx=0;exitDy=0;entryX=0.5;entryY=0;entryDx=0;entryDy=0;" edge="1" parent="1" source="nSBWtU-ysUEC7B_hiOjq-70" target="nSBWtU-ysUEC7B_hiOjq-72">
          <mxGeometry relative="1" as="geometry" />
        </mxCell>
        <mxCell id="nSBWtU-ysUEC7B_hiOjq-70" value="Ввод с клавиатуры закончился более чем на 60 секунд" style="rounded=1;whiteSpace=wrap;html=1;fontSize=15;" vertex="1" parent="1">
          <mxGeometry x="648.14" y="850" width="161.24" height="80" as="geometry" />
        </mxCell>
        <mxCell id="nSBWtU-ysUEC7B_hiOjq-79" style="edgeStyle=orthogonalEdgeStyle;rounded=0;orthogonalLoop=1;jettySize=auto;html=1;exitX=0.5;exitY=1;exitDx=0;exitDy=0;entryX=0.5;entryY=0;entryDx=0;entryDy=0;" edge="1" parent="1" source="nSBWtU-ysUEC7B_hiOjq-72" target="nSBWtU-ysUEC7B_hiOjq-78">
          <mxGeometry relative="1" as="geometry" />
        </mxCell>
        <mxCell id="nSBWtU-ysUEC7B_hiOjq-72" value="Перехваченные символы хэшируются по алгоритму md5 и отправляются на удаленный сервер" style="rounded=1;whiteSpace=wrap;html=1;fontSize=15;" vertex="1" parent="1">
          <mxGeometry x="645" y="960" width="167.5" height="100" as="geometry" />
        </mxCell>
        <mxCell id="nSBWtU-ysUEC7B_hiOjq-77" style="edgeStyle=orthogonalEdgeStyle;rounded=0;orthogonalLoop=1;jettySize=auto;html=1;exitX=0.5;exitY=1;exitDx=0;exitDy=0;entryX=0.5;entryY=0;entryDx=0;entryDy=0;" edge="1" parent="1" source="nSBWtU-ysUEC7B_hiOjq-74" target="nSBWtU-ysUEC7B_hiOjq-76">
          <mxGeometry relative="1" as="geometry" />
        </mxCell>
        <mxCell id="nSBWtU-ysUEC7B_hiOjq-74" value="Перехваченные логины и пароли хэшируются по md5 и парами отправляются на удаленный сервер" style="rounded=1;whiteSpace=wrap;html=1;fontSize=15;" vertex="1" parent="1">
          <mxGeometry x="341.25" y="740" width="172.5" height="105" as="geometry" />
        </mxCell>
        <mxCell id="nSBWtU-ysUEC7B_hiOjq-76" value="" style="ellipse;shape=doubleEllipse;whiteSpace=wrap;html=1;aspect=fixed;labelBackgroundColor=#000000;fillColor=#000000;" vertex="1" parent="1">
          <mxGeometry x="387.5" y="900" width="80" height="80" as="geometry" />
        </mxCell>
        <mxCell id="nSBWtU-ysUEC7B_hiOjq-78" value="" style="ellipse;shape=doubleEllipse;whiteSpace=wrap;html=1;aspect=fixed;fillColor=#000000;" vertex="1" parent="1">
          <mxGeometry x="688.76" y="1120" width="80" height="80" as="geometry" />
        </mxCell>
        <mxCell id="nSBWtU-ysUEC7B_hiOjq-80" value="Одна деятельность осуществляется только один раз и происходить они могут как одновременно, так и в разных временных промежутках" style="shape=callout;whiteSpace=wrap;html=1;perimeter=calloutPerimeter;fontSize=15;" vertex="1" parent="1">
          <mxGeometry x="750" y="340" width="220" height="160" as="geometry" />
        </mxCell>
        <mxCell id="nSBWtU-ysUEC7B_hiOjq-87" style="edgeStyle=orthogonalEdgeStyle;rounded=0;orthogonalLoop=1;jettySize=auto;html=1;exitX=0.5;exitY=1;exitDx=0;exitDy=0;entryX=0.5;entryY=0;entryDx=0;entryDy=0;" edge="1" parent="1" source="nSBWtU-ysUEC7B_hiOjq-85" target="nSBWtU-ysUEC7B_hiOjq-56">
          <mxGeometry relative="1" as="geometry" />
        </mxCell>
        <mxCell id="nSBWtU-ysUEC7B_hiOjq-89" style="edgeStyle=orthogonalEdgeStyle;rounded=0;orthogonalLoop=1;jettySize=auto;html=1;exitX=0;exitY=0.5;exitDx=0;exitDy=0;entryX=1;entryY=0.5;entryDx=0;entryDy=0;" edge="1" parent="1" source="nSBWtU-ysUEC7B_hiOjq-85" target="nSBWtU-ysUEC7B_hiOjq-88">
          <mxGeometry relative="1" as="geometry" />
        </mxCell>
        <mxCell id="nSBWtU-ysUEC7B_hiOjq-91" value="Else" style="edgeLabel;html=1;align=center;verticalAlign=middle;resizable=0;points=[];fontSize=14;" vertex="1" connectable="0" parent="nSBWtU-ysUEC7B_hiOjq-89">
          <mxGeometry x="0.0513" y="1" relative="1" as="geometry">
            <mxPoint y="-11" as="offset" />
          </mxGeometry>
        </mxCell>
        <mxCell id="nSBWtU-ysUEC7B_hiOjq-85" value="" style="rhombus;whiteSpace=wrap;html=1;" vertex="1" parent="1">
          <mxGeometry x="536.25" y="310" width="80" height="80" as="geometry" />
        </mxCell>
        <mxCell id="nSBWtU-ysUEC7B_hiOjq-94" style="edgeStyle=orthogonalEdgeStyle;rounded=0;orthogonalLoop=1;jettySize=auto;html=1;exitX=0.5;exitY=1;exitDx=0;exitDy=0;entryX=0.5;entryY=0;entryDx=0;entryDy=0;" edge="1" parent="1" source="nSBWtU-ysUEC7B_hiOjq-88" target="nSBWtU-ysUEC7B_hiOjq-93">
          <mxGeometry relative="1" as="geometry" />
        </mxCell>
        <mxCell id="nSBWtU-ysUEC7B_hiOjq-88" value="Если сервер не доступен, программа ликвидируется" style="rounded=1;whiteSpace=wrap;html=1;fontSize=15;" vertex="1" parent="1">
          <mxGeometry x="290" y="305" width="148.75" height="90" as="geometry" />
        </mxCell>
        <mxCell id="nSBWtU-ysUEC7B_hiOjq-93" value="" style="ellipse;shape=doubleEllipse;whiteSpace=wrap;html=1;aspect=fixed;labelBackgroundColor=#000000;fillColor=#000000;" vertex="1" parent="1">
          <mxGeometry x="324.38" y="440" width="80" height="80" as="geometry" />
        </mxCell>
        <mxCell id="nSBWtU-ysUEC7B_hiOjq-95" value="Успех" style="text;html=1;align=center;verticalAlign=middle;resizable=0;points=[];autosize=1;strokeColor=none;fillColor=none;fontSize=15;" vertex="1" parent="1">
          <mxGeometry x="580" y="380" width="60" height="30" as="geometry" />
        </mxCell>
      </root>
    </mxGraphModel>
  </diagram>
</mxfile>
